<svg width="180" height="180" xmlns="http://www.w3.org/2000/svg">
    <g id="text" transform="translate(48 6)" stroke="DEEPSKYBLUE" fill="DEEPSKYBLUE">
        <path
            d="M 48.882 76.729 L 48.882 90.088 A 326.556 326.556 0 0 1 79.819 91.495 A 5.058 5.058 0 0 1 85.514 96.177 A 6.668 6.668 0 0 1 85.444 97.12 Q 84.741 102.745 78.413 101.338 A 161.811 161.811 0 0 0 63.878 100.201 A 376.273 376.273 0 0 0 48.882 99.932 A 157.046 157.046 0 0 1 48.486 109.688 A 371.769 371.769 0 0 1 48.178 113.995 L 48.178 123.838 L 48.178 162.51 A 5.364 5.364 0 0 1 44.663 168.838 A 4.792 4.792 0 0 1 39.741 163.916 A 22.948 22.948 0 0 1 39.389 159.522 A 62.816 62.816 0 0 1 39.741 153.37 L 39.741 144.932 L 39.741 99.932 L 39.038 99.932 A 273.892 273.892 0 0 0 21.889 100.396 Q 14.688 100.855 10.07 101.771 A 41.688 41.688 0 0 0 8.803 102.041 A 14.5 14.5 0 0 1 7.007 102.159 A 8.015 8.015 0 0 1 0.366 99.229 A 2.036 2.036 0 0 1 0.014 97.823 A 15.124 15.124 0 0 1 0.366 95.01 L 0.366 92.901 A 3.098 3.098 0 0 1 4.272 89.971 A 13.943 13.943 0 0 1 5.991 90.088 A 7.289 7.289 0 0 0 8.012 90.352 Q 13.022 90.616 29.897 90.088 L 39.741 90.088 A 121.087 121.087 0 0 1 40.444 76.729 Q 38.335 76.729 35.522 76.026 L 32.007 76.026 A 17.912 17.912 0 0 1 14.034 60.971 A 39.386 39.386 0 0 1 13.725 59.854 A 74.236 74.236 0 0 1 10.561 37.442 A 106.956 106.956 0 0 1 10.913 28.916 A 79.01 79.01 0 0 1 14.82 10.812 A 127.482 127.482 0 0 1 15.835 7.823 A 3.752 3.752 0 0 1 19.155 4.893 A 3.703 3.703 0 0 1 20.053 5.01 Q 22.866 6.416 23.569 9.932 A 64.071 64.071 0 0 1 22.659 21.911 A 25.626 25.626 0 0 1 22.163 23.995 A 61.934 61.934 0 0 0 19.632 41.882 A 79.37 79.37 0 0 0 20.757 54.932 A 14.504 14.504 0 0 0 35.848 66.814 A 33.97 33.97 0 0 0 36.928 66.885 L 40.444 66.885 L 40.444 47.901 L 40.444 5.713 A 13.943 13.943 0 0 1 40.327 3.995 A 3.098 3.098 0 0 1 43.257 0.088 A 10.907 10.907 0 0 1 44.459 0.018 A 4.799 4.799 0 0 1 49.585 5.713 L 49.585 21.885 A 859.38 859.38 0 0 0 49.057 33.838 A 229.797 229.797 0 0 0 48.882 41.573 L 48.882 66.885 A 36.08 36.08 0 0 0 56.627 65.649 A 93.751 93.751 0 0 0 57.319 65.479 A 9.447 9.447 0 0 0 66.604 56.096 A 36.617 36.617 0 0 0 67.163 49.307 Q 67.637 33.17 66.51 21.198 A 113.614 113.614 0 0 0 65.053 10.635 A 5.596 5.596 0 0 1 64.936 9.541 A 3.067 3.067 0 0 1 67.866 6.416 Q 72.085 6.416 73.491 9.932 Q 76.303 31.026 74.897 57.745 Q 72.788 72.51 59.428 75.323 Q 54.507 76.729 48.882 76.729 Z" />
    </g>
</svg>